<svg width="71" height="75" viewBox="0 0 71 75" fill="none" xmlns="http://www.w3.org/2000/svg">
<path d="M5.0925 24.1369C3.94637 23.4868 3.18099 22.7143 2.79639 21.8195C2.41439 20.9202 2.48047 20.0266 2.99463 19.1387C3.407 18.4265 4.01488 17.9899 4.81826 17.8289L1.06727 15.7011L2.20259 13.7405L12.6401 19.6614L11.6184 21.426L10.7821 21.0773C11.1118 21.911 11.0548 22.711 10.6111 23.4772C10.1126 24.3381 9.37222 24.8372 8.38994 24.9746C7.40574 25.1049 6.3066 24.8256 5.0925 24.1369ZM6.36661 22.264C7.0552 22.6546 7.65213 22.8346 8.1574 22.8038C8.66268 22.7731 9.04711 22.5301 9.31072 22.0749C9.66045 21.4709 9.65113 20.8998 9.28277 20.3615L6.38118 18.7155C5.72833 18.6685 5.22835 18.9448 4.88123 19.5442C4.33575 20.4862 4.83088 21.3928 6.36661 22.264Z" fill="white"/>
<path d="M21.0044 12.8489C20.8064 12.7336 20.6059 12.5614 20.4027 12.3324C20.2698 13.1365 19.8332 13.7718 19.093 14.2383C18.3924 14.6799 17.6812 14.845 16.9593 14.7336C16.2418 14.6195 15.6858 14.2558 15.2912 13.6426C14.8065 12.8892 14.7143 12.1347 15.0146 11.3791C15.3194 10.6206 16.0012 9.90455 17.0603 9.23087L17.9393 8.67683L17.6773 8.26948C17.4659 7.94098 17.2109 7.73233 16.9122 7.64353C16.618 7.55196 16.288 7.62143 15.9223 7.85193C15.6007 8.05466 15.3966 8.291 15.3102 8.56094C15.2282 8.82811 15.2731 9.09529 15.445 9.36247L13.535 10.5664C13.27 10.1546 13.1527 9.69304 13.1828 9.18155C13.2129 8.67007 13.398 8.16859 13.7383 7.67711C14.0757 7.18125 14.5352 6.75002 15.1168 6.38344C15.9981 5.82801 16.8387 5.60902 17.6389 5.72648C18.4406 5.83679 19.0979 6.29053 19.6108 7.0877L21.5934 10.1691C22.0318 10.8408 22.4548 11.2914 22.8625 11.5208L22.9343 11.6325L21.0044 12.8489ZM18.5752 12.5239C18.8572 12.3462 19.0777 12.121 19.2367 11.8484C19.3929 11.5714 19.4607 11.2917 19.44 11.0092L18.6537 9.78718L17.9399 10.2371C16.9838 10.8397 16.6862 11.489 17.0473 12.1849L17.1125 12.3007C17.2647 12.5373 17.4738 12.6794 17.7399 12.7272C18.0059 12.775 18.2844 12.7072 18.5752 12.5239Z" fill="white"/>
<path d="M31.5557 6.97154L32.6394 1.1666L34.9907 0.971308L32.8631 9.63025L30.7142 9.80873L27.1583 1.62186L29.5096 1.42657L31.5557 6.97154Z" fill="white"/>
<path d="M45.3526 12.1993L43.2623 11.3255L46.5797 3.55058L48.6701 4.42435L45.3526 12.1993ZM47.3157 1.48736C47.4486 1.17598 47.6612 0.962876 47.9537 0.848049C48.251 0.735231 48.5799 0.754147 48.9403 0.904797C49.2959 1.05344 49.5365 1.27255 49.662 1.56213C49.7876 1.85171 49.784 2.15219 49.6511 2.46358C49.5162 2.77975 49.2977 2.99324 48.9956 3.10405C48.6983 3.21687 48.3743 3.19996 48.0235 3.05333C47.6727 2.90669 47.4321 2.68758 47.3017 2.39599C47.1761 2.10641 47.1808 1.80353 47.3157 1.48736Z" fill="white"/>
<path d="M55.1149 13.4117C56.1372 12.5802 57.1393 12.1444 58.1214 12.1043C59.1067 12.0681 59.9271 12.4448 60.5825 13.2342C61.1082 13.8673 61.304 14.5842 61.1699 15.3847L64.5155 12.6635L65.9627 14.4067L56.6533 21.9786L55.3508 20.4098L55.9779 19.7587C55.0731 19.7696 54.3379 19.4344 53.7723 18.7532C53.1368 17.9879 52.9292 17.1263 53.1493 16.1685C53.3769 15.2114 54.032 14.2925 55.1149 13.4117ZM56.4299 15.2523C55.8157 15.7519 55.4332 16.2409 55.2822 16.7195C55.1313 17.1981 55.2238 17.6398 55.5598 18.0445C56.0057 18.5815 56.5484 18.7744 57.1879 18.6235L59.7759 16.5185C60.0528 15.9308 59.97 15.3704 59.5275 14.8374C58.8322 13.9999 57.7997 14.1382 56.4299 15.2523Z" fill="white"/>
<path d="M60.6848 29.1517C61.0369 29.0794 61.3471 29.138 61.6157 29.3274C61.8853 29.522 62.0575 29.7977 62.1323 30.1545C62.2081 30.5164 62.1609 30.8372 61.9907 31.1167C61.8215 31.4013 61.5609 31.5798 61.2089 31.6521C60.862 31.7233 60.5542 31.6642 60.2857 31.4748C60.0223 31.2843 59.8521 31.0055 59.7752 30.6385C59.6993 30.2766 59.744 29.9563 59.9091 29.6779C60.0793 29.3983 60.3379 29.2229 60.6848 29.1517Z" fill="white"/>
<path d="M64.6005 40.4214C65.8683 40.7805 66.7963 41.3493 67.3845 42.1276C67.9712 42.9109 68.1221 43.7954 67.837 44.7811C67.6084 45.5716 67.1239 46.1408 66.3836 46.4886L70.5328 47.6641L69.9034 49.8405L58.3578 46.5697L58.9242 44.6109L59.819 44.7507C59.2988 44.0187 59.1617 43.2274 59.4076 42.3768C59.684 41.4212 60.2819 40.7597 61.2014 40.3922C62.1245 40.0312 63.2575 40.0409 64.6005 40.4214ZM63.8154 42.5456C63.0537 42.3298 62.4316 42.297 61.949 42.4472C61.4664 42.5974 61.1521 42.9251 61.0059 43.4305C60.8121 44.1009 60.9585 44.654 61.4451 45.0896L64.6548 45.9988C65.2992 45.8891 65.7176 45.5015 65.91 44.836C66.2124 43.7903 65.5142 43.0269 63.8154 42.5456Z" fill="white"/>
<path d="M55.6064 56.1926L55.5797 55.0498L53.7056 53.2794L55.2729 51.6541L63.996 59.8947L62.4288 61.5199L57.5958 56.9544L57.701 57.6556L58.0446 60.9569L56.1628 62.9084L55.7219 58.2899L49.8336 57.2947L51.634 55.4276L55.6064 56.1926Z" fill="white"/>
<path d="M43.7808 61.3843C43.8968 61.7245 43.8772 62.0385 43.7222 62.3263C43.5623 62.6158 43.3094 62.8183 42.9636 62.9338C42.6129 63.0509 42.2877 63.0415 41.9882 62.9054C41.6838 62.7709 41.4736 62.5336 41.3577 62.1934C41.2434 61.8582 41.2638 61.5467 41.4187 61.2588C41.5754 60.9759 41.8316 60.775 42.1873 60.6562C42.538 60.5391 42.8623 60.5461 43.1602 60.6773C43.4597 60.8134 43.6665 61.0491 43.7808 61.3843Z" fill="white"/>
<path d="M29.2989 65.1219L30.2306 64.4463L30.6402 61.9009L32.8705 62.2524L30.964 74.1L28.7338 73.7485L29.79 67.1845L29.2685 67.6717L26.7274 69.8415L24.0495 69.4194L27.6267 66.4164L25.1301 61.0323L27.6922 61.4362L29.2989 65.1219Z" fill="white"/>
<path d="M16.9415 56.1116L18.7637 57.458L13.6736 64.2068L11.8514 62.8604L16.9415 56.1116ZM12.4632 66.0321C12.2593 66.3024 12.0015 66.4583 11.6896 66.4999C11.3736 66.5384 11.0585 66.4415 10.7443 66.2094C10.4343 65.9804 10.2531 65.7104 10.2005 65.3996C10.1479 65.0888 10.2235 64.7982 10.4274 64.5279C10.6344 64.2535 10.898 64.0986 11.2182 64.0632C11.5342 64.0248 11.8451 64.1185 12.1509 64.3444C12.4567 64.5704 12.638 64.8403 12.6948 65.1542C12.7474 65.4651 12.6702 65.7577 12.4632 66.0321Z" fill="white"/>
<path d="M3.90669 54.2065L4.73047 53.7386C3.80609 53.5136 3.12178 52.9416 2.67754 52.0225C2.20384 51.0424 2.26695 50.1856 2.86686 49.4521C1.83178 49.2852 1.07511 48.7071 0.596878 47.7177C0.197971 46.8924 0.143483 46.1633 0.433415 45.5304C0.718639 44.8998 1.3461 44.3549 2.31581 43.8957L7.19493 41.5855L8.18087 43.6253L3.30881 45.9322C2.87573 46.1373 2.60114 46.371 2.48503 46.6335C2.36421 46.8981 2.40693 47.2438 2.61318 47.6705C2.90783 48.2802 3.40367 48.564 4.1007 48.5221L9.34359 46.0309L10.3261 48.0638L5.46113 50.3673C5.01864 50.5768 4.74047 50.8152 4.62663 51.0823C4.51278 51.3494 4.55672 51.6916 4.75844 52.109C5.03722 52.6858 5.47901 52.9894 6.08382 53.02L11.4854 50.4623L12.468 52.4952L4.82803 56.1127L3.90669 54.2065Z" fill="white"/>
<path d="M6.16137 36.0088C5.80223 35.9958 5.51532 35.8656 5.30064 35.6181C5.08615 35.3654 4.98586 35.0569 4.99975 34.6925C5.01385 34.323 5.13736 34.0226 5.37031 33.7913C5.60345 33.5548 5.89959 33.443 6.25873 33.456C6.61266 33.4688 6.89697 33.5989 7.11165 33.8464C7.32113 34.0937 7.41872 34.4047 7.40443 34.7795C7.39034 35.149 7.26942 35.4495 7.04169 35.681C6.80874 35.9123 6.5153 36.0216 6.16137 36.0088Z" fill="white"/>
</svg>
